<svg width="103" height="89" viewBox="0 0 103 89" fill="none" xmlns="http://www.w3.org/2000/svg">
<path d="M52.8463 6.95229e-05C52.3136 -0.000457347 51.7871 0.114671 51.3032 0.337501C50.8194 0.560332 50.3896 0.885553 50.0438 1.29069L49.675 1.55619C38.5756 -1.70356 25.9865 0.818694 17.2029 9.13032C9.40751 16.4979 6.43539 26.6902 8.25701 36.2261L8.14639 36.3293L3.19776 41.0124C2.18951 41.9427 1.38485 43.0717 0.83449 44.3283C0.284131 45.5849 0 46.9419 0 48.3137C0 49.6855 0.284131 51.0425 0.83449 52.2991C1.38485 53.5557 2.18951 54.6847 3.19776 55.6149C5.72001 58.0118 9.18626 58.9853 12.4681 58.5354C12.9401 60.2538 13.8915 61.8837 15.3149 63.2333C17.2398 65.0549 19.7104 66.0506 22.2326 66.2276C22.417 68.6097 23.4716 70.9476 25.4039 72.7692C27.3214 74.5908 29.792 75.5864 32.3143 75.7634C32.4986 78.1456 33.5533 80.4834 35.4855 82.3051C37.409 84.0827 39.8863 85.1434 42.5002 85.3086C45.1142 85.4739 47.7052 84.7335 49.8373 83.2122L52.271 85.5132C56.5485 89.5695 63.5031 89.5695 67.788 85.5132C69.7055 83.6989 70.7675 81.3758 70.9666 79.0011C73.4741 78.8167 75.9153 77.8211 77.8328 76.0068C79.7503 74.1926 80.8123 71.8694 81.004 69.4947C83.4746 69.2882 85.8863 68.2926 87.789 66.5078C89.2714 65.0992 90.2449 63.3808 90.6948 61.5739C92.3353 61.782 94.0015 61.6269 95.5754 61.1197C97.1493 60.6124 98.5925 59.7655 99.8029 58.6387C100.811 57.7085 101.616 56.5795 102.166 55.3229C102.717 54.0663 103.001 52.7093 103.001 51.3374C103.001 49.9656 102.717 48.6086 102.166 47.352C101.616 46.0954 100.811 44.9664 99.8029 44.0362L95.4221 39.8914L96.2629 36.7939C98.1934 29.6168 97.2128 21.9677 93.5341 15.5097C88.1135 5.90744 77.6189 0.0221929 66.3204 0.0221929H58.8053C58.4662 0.0065706 58.1269 -0.000804979 57.7875 6.95229e-05H52.8389H52.8463ZM85.0898 40.2454L88.674 43.7854C88.9026 44.0067 89.1534 44.1911 89.4189 44.3459L94.4486 49.0954C94.7575 49.38 95.004 49.7255 95.1726 50.1101C95.3412 50.4947 95.4283 50.9101 95.4283 51.3301C95.4283 51.75 95.3412 52.1654 95.1726 52.55C95.004 52.9347 94.7575 53.2801 94.4486 53.5647C93.8053 54.1597 92.9613 54.4902 92.085 54.4902C91.2086 54.4902 90.3646 54.1597 89.7213 53.5647L81.3138 45.6218C80.5848 44.9485 79.6289 44.5746 78.6366 44.5746C77.6443 44.5746 76.6885 44.9485 75.9595 45.6218L75.871 45.6956C74.396 47.0968 74.396 49.3683 75.871 50.7696L82.4274 56.9646C82.7364 57.2498 82.9831 57.5959 83.1517 57.9811C83.3204 58.3664 83.4075 58.7823 83.4075 59.2029C83.4075 59.6234 83.3204 60.0394 83.1517 60.4246C82.9831 60.8099 82.7364 61.156 82.4274 61.4412C81.842 61.9829 81.0886 62.3077 80.2928 62.3614C79.497 62.4151 78.7069 62.1944 78.054 61.7362C77.3125 61.2109 76.4127 60.9571 75.506 61.0176C74.5993 61.078 73.7411 61.449 73.0759 62.0681C72.4334 62.6662 72.0436 63.487 71.9861 64.3629C71.9285 65.2388 72.2075 66.1036 72.7661 66.7807C73.2568 67.3808 73.4996 68.1458 73.4448 68.919C73.3899 69.6923 73.0416 70.4153 72.4711 70.9402C71.8778 71.4893 71.112 71.8153 70.3049 71.8624C69.4978 71.9095 68.6993 71.6748 68.0461 71.1983C67.3079 70.6586 66.4053 70.3915 65.4922 70.4426C64.5791 70.4937 63.7119 70.8598 63.0385 71.4786C62.3887 72.0766 61.9934 72.9015 61.9344 73.7826C61.8754 74.6638 62.1571 75.5339 62.7214 76.2133C63.7539 77.4671 63.6506 79.2887 62.4264 80.4466C61.773 81.0478 60.9174 81.3815 60.0295 81.3815C59.1416 81.3815 58.2861 81.0478 57.6326 80.4466L55.2579 78.2046L55.8774 77.6219C56.8856 76.6917 57.6903 75.5627 58.2407 74.3061C58.791 73.0495 59.0751 71.6925 59.0751 70.3207C59.0751 68.9489 58.791 67.5919 58.2407 66.3353C57.6903 65.0787 56.8856 63.9497 55.8774 63.0194C53.9883 61.2496 51.5429 60.1912 48.9596 60.0252C48.7557 57.5254 47.6246 55.1921 45.7884 53.4836C43.9022 51.7126 41.4597 50.6517 38.878 50.4819C38.674 47.9821 37.5429 45.6489 35.7068 43.9403C34.4762 42.7944 33.0054 41.9375 31.4017 41.4323C29.7979 40.927 28.1016 40.7861 26.4364 41.0198C25.9358 39.2247 24.9509 37.602 23.5896 36.3293C22.5027 35.3122 21.2245 34.5212 19.8294 34.0021C18.4342 33.483 16.9498 33.2463 15.4624 33.3056C15.0659 29.7874 15.5013 26.2252 16.7337 22.9062C17.966 19.5871 19.9607 16.6039 22.5571 14.1969C25.0971 11.8251 28.0953 9.99767 31.3674 8.82705C34.6396 7.65644 38.1165 7.16734 41.5846 7.38982L33.509 13.2161C32.2697 14.0959 31.2245 15.221 30.4381 16.5216C29.6518 17.8222 29.1411 19.2705 28.9378 20.7767C28.7345 22.2829 28.8428 23.8148 29.2562 25.2774C29.6696 26.7399 30.3791 28.1019 31.3408 29.2788C33.2805 31.6549 36.0507 33.2053 39.0904 33.6161C42.1301 34.0269 45.2124 33.2674 47.7133 31.4913L57.6474 24.3376H68.2674L85.0898 40.2454ZM37.8234 19.1898L54.218 7.37507H57.7949C58.1023 7.37198 58.4098 7.37935 58.7168 7.39719H66.313C75.104 7.39719 83.069 11.9697 87.1179 19.1382C89.7139 23.7328 90.4883 29.0207 89.3304 34.0799L73.0169 18.0172C72.3277 17.3414 71.4009 16.9627 70.4356 16.9626H56.4453C55.6725 16.9623 54.9192 17.2048 54.2918 17.6558L43.4063 25.5102C42.4367 26.184 41.2498 26.4699 40.0797 26.3115C38.9097 26.1531 37.8415 25.562 37.0859 24.6547C36.7518 24.2579 36.5044 23.7957 36.3596 23.2976C36.2149 22.7995 36.176 22.2766 36.2454 21.7625C36.3149 21.2485 36.4912 20.7547 36.7629 20.3129C37.0347 19.8711 37.3959 19.491 37.8234 19.1972V19.1898ZM45.8031 68.0713C46.4479 67.4804 47.2914 67.1538 48.166 67.1565C49.0406 67.1593 49.8821 67.4911 50.5231 68.0861C50.832 68.3706 51.0785 68.7161 51.2471 69.1007C51.4157 69.4854 51.5028 69.9007 51.5028 70.3207C51.5028 70.7406 51.4157 71.156 51.2471 71.5407C51.0785 71.9253 50.832 72.2708 50.5231 72.5553L45.5671 77.2384C44.9242 77.8314 44.0817 78.1606 43.2071 78.1606C42.3326 78.1606 41.49 77.8314 40.8471 77.2384C40.5383 76.9539 40.2918 76.6084 40.1232 76.2238C39.9546 75.8392 39.8675 75.4238 39.8675 75.0038C39.8675 74.5839 39.9546 74.1685 40.1232 73.7839C40.2918 73.3992 40.5383 73.0537 40.8471 72.7692L45.8031 68.0787V68.0713ZM40.4489 63.0047L35.4855 67.7026C34.8422 68.2976 33.9981 68.6281 33.1218 68.6281C32.2455 68.6281 31.4014 68.2976 30.7581 67.7026C30.4561 67.4239 30.2138 67.0868 30.0458 66.7118C29.8778 66.3367 29.7876 65.9315 29.7808 65.5206C29.7739 65.1097 29.8504 64.7017 30.0057 64.3212C30.161 63.9408 30.3919 63.5957 30.6844 63.3071L30.7581 63.2333L35.7068 58.5502L35.7805 58.4764C36.4285 57.9122 37.2623 57.6076 38.1215 57.6212C38.9806 57.6349 39.8043 57.9657 40.4341 58.5502C40.7416 58.8336 40.9872 59.1774 41.1557 59.5601C41.3241 59.9428 41.4118 60.3561 41.4132 60.7742C41.4146 61.1923 41.3296 61.6063 41.1637 61.9901C40.9978 62.3738 40.7544 62.7193 40.4489 63.0047ZM30.3451 53.4836L25.4039 58.1593L25.3228 58.2331C24.6752 58.7952 23.8429 59.0986 22.9855 59.085C22.1281 59.0714 21.3059 58.7417 20.6765 58.1593C20.3677 57.8748 20.1212 57.5293 19.9525 57.1447C19.7839 56.76 19.6969 56.3447 19.6969 55.9247C19.6969 55.5047 19.7839 55.0894 19.9525 54.7047C20.1212 54.3201 20.3677 53.9746 20.6765 53.6901L25.6178 49.0143C26.2615 48.4172 27.1071 48.0854 27.9851 48.0854C28.8632 48.0854 29.7088 48.4172 30.3525 49.0143C30.6545 49.293 30.8968 49.6301 31.0648 50.0051C31.2328 50.3802 31.323 50.7854 31.3299 51.1963C31.3368 51.6072 31.2603 52.0152 31.1049 52.3957C30.9496 52.7761 30.7187 53.1211 30.4263 53.4098L30.3525 53.4836H30.3451ZM18.2354 45.8652L13.2941 50.5483C12.6504 51.1455 11.8048 51.4773 10.9268 51.4773C10.0487 51.4773 9.20311 51.1455 8.55939 50.5483C8.25054 50.2638 8.00403 49.9183 7.83542 49.5337C7.66681 49.149 7.57975 48.7336 7.57975 48.3137C7.57975 47.8937 7.66681 47.4783 7.83542 47.0937C8.00403 46.7091 8.25054 46.3636 8.55939 46.0791L13.508 41.3959C14.1513 40.8009 14.9954 40.4704 15.8717 40.4704C16.748 40.4704 17.5921 40.8009 18.2354 41.3959C18.5442 41.6805 18.7907 42.026 18.9594 42.4106C19.128 42.7952 19.215 43.2106 19.215 43.6306C19.215 44.0505 19.128 44.4659 18.9594 44.8505C18.7907 45.2351 18.5442 45.5806 18.2354 45.8652Z" fill="#F57600"/>
</svg>
