<svg width="92" height="100" viewBox="0 0 92 100" fill="none" xmlns="http://www.w3.org/2000/svg">
<path d="M71.2627 10.6663C70.9501 7.96212 69.6181 5.46419 67.5212 3.65012C65.4243 1.83604 62.7097 0.83309 59.8964 0.833008H42.1047C39.2914 0.83309 36.5768 1.83604 34.4799 3.65012C32.3831 5.46419 31.051 7.96212 30.7384 10.6663H21.7714C18.738 10.6663 15.8288 11.8319 13.6839 13.9065C11.5389 15.9811 10.3339 18.7949 10.3339 21.7288V40.658C12.736 39.4681 15.3047 38.6233 17.9589 38.1505V21.7288C17.9589 20.7509 18.3606 19.8129 19.0756 19.1214C19.7905 18.4298 20.7603 18.0413 21.7714 18.0413H32.5938C34.6475 21.0061 38.1397 22.958 42.1047 22.958H59.8964C63.8614 22.958 67.3537 21.0061 69.4073 18.0413H80.2297C81.2409 18.0413 82.2106 18.4298 82.9256 19.1214C83.6406 19.8129 84.0422 20.7509 84.0422 21.7288V88.1038C84.0422 89.0818 83.6406 90.0197 82.9256 90.7113C82.2106 91.4028 81.2409 91.7913 80.2297 91.7913H60.3132C60.8767 92.9442 61.1689 94.2036 61.1689 95.4788C61.1689 96.7541 60.8767 98.0134 60.3132 99.1663H80.2297C81.7317 99.1663 83.219 98.8802 84.6067 98.3242C85.9943 97.7683 87.2552 96.9534 88.3173 95.9262C89.3793 94.8989 90.2218 93.6794 90.7966 92.3373C91.3714 90.9951 91.6672 89.5566 91.6672 88.1038V21.7288C91.6672 20.2761 91.3714 18.8376 90.7966 17.4954C90.2218 16.1532 89.3793 14.9337 88.3173 13.9065C87.2552 12.8792 85.9943 12.0644 84.6067 11.5084C83.219 10.9525 81.7317 10.6663 80.2297 10.6663H71.2627ZM71.3085 11.1383L71.3339 11.8955C71.3339 11.6398 71.3237 11.3891 71.3085 11.1383ZM42.1047 8.20801H59.8964C60.9075 8.20801 61.8773 8.59651 62.5922 9.28805C63.3072 9.97959 63.7089 10.9175 63.7089 11.8955C63.7089 12.8735 63.3072 13.8114 62.5922 14.503C61.8773 15.1945 60.9075 15.583 59.8964 15.583H42.1047C41.0936 15.583 40.1239 15.1945 39.4089 14.503C38.6939 13.8114 38.2922 12.8735 38.2922 11.8955C38.2922 10.9175 38.6939 9.97959 39.4089 9.28805C40.1239 8.59651 41.0936 8.20801 42.1047 8.20801ZM40.5797 78.9588C44.2607 74.7056 46.1558 69.2703 45.8894 63.7297C45.6231 58.189 43.2149 52.9472 39.1418 49.0427C35.0687 45.1382 29.6279 42.8558 23.8972 42.6477C18.1666 42.4397 12.5642 44.3211 8.19991 47.9192C3.83562 51.5174 1.02782 56.5698 0.332764 62.0756C-0.36229 67.5813 1.1061 73.1388 4.44704 77.6469C7.78799 82.155 12.7577 85.285 18.3718 86.4167C23.9858 87.5484 29.8345 86.5994 34.7593 83.7575L49.5772 98.0847C49.9263 98.447 50.3472 98.7375 50.8148 98.9391C51.2825 99.1406 51.7873 99.249 52.2992 99.2577C52.8112 99.2665 53.3196 99.1754 53.7944 98.9899C54.2691 98.8045 54.7003 98.5284 55.0623 98.1783C55.4244 97.8281 55.7098 97.411 55.9015 96.9518C56.0933 96.4927 56.1874 96.0009 56.1784 95.5058C56.1694 95.0106 56.0573 94.5223 55.849 94.07C55.6406 93.6177 55.3401 93.2106 54.9656 92.873L40.5797 78.9588ZM23.0422 79.4997C18.9977 79.4997 15.1188 77.9457 12.2589 75.1795C9.39893 72.4133 7.79224 68.6616 7.79224 64.7497C7.79224 60.8377 9.39893 57.086 12.2589 54.3198C15.1188 51.5537 18.9977 49.9997 23.0422 49.9997C27.0868 49.9997 30.9657 51.5537 33.8256 54.3198C36.6855 57.086 38.2922 60.8377 38.2922 64.7497C38.2922 68.6616 36.6855 72.4133 33.8256 75.1795C30.9657 77.9457 27.0868 79.4997 23.0422 79.4997Z" fill="#F57600"/>
</svg>
