<svg width="89" height="104" viewBox="0 0 89 104" fill="none" xmlns="http://www.w3.org/2000/svg">
<path d="M44.25 103.25L21.476 91.1071C14.9836 87.653 9.55422 82.4962 5.77067 76.1901C1.98712 69.884 -0.00779192 62.6666 2.2872e-05 55.3125V7.375C0.00197532 5.41963 0.77961 3.5449 2.16227 2.16224C3.54492 0.779586 5.41965 0.00195245 7.37502 0H81.125C83.0804 0.00195245 84.9551 0.779586 86.3378 2.16224C87.7204 3.5449 88.4981 5.41963 88.5 7.375V55.3125C88.5078 62.6666 86.5129 69.884 82.7294 76.1901C78.9458 82.4962 73.5165 87.653 67.024 91.1071L44.25 103.25ZM7.37502 7.375V55.3125C7.3689 61.3298 9.00159 67.2351 12.0978 72.3947C15.1941 77.5542 19.637 81.7731 24.9496 84.5986L44.25 94.8904L63.5504 84.6023C68.8636 81.7766 73.3069 77.557 76.4032 72.3968C79.4994 67.2365 81.1318 61.3304 81.125 55.3125V7.375H7.37502Z" fill="#F57600"/>
<path d="M36.75 59.3006L27.1994 49.75L22 54.9494L36.75 69.6994L66.25 40.1994L61.0506 35L36.75 59.3006Z" fill="#F57600"/>
</svg>
