<svg width="33" height="33" viewBox="0 0 33 33" fill="none" xmlns="http://www.w3.org/2000/svg">
<path d="M16.0008 10.8888C13.062 10.8888 10.6636 13.2864 10.6636 16.2244C10.6636 19.1623 13.062 21.5599 16.0008 21.5599C18.9397 21.5599 21.338 19.1623 21.338 16.2244C21.338 13.2864 18.9397 10.8888 16.0008 10.8888ZM32.0085 16.2244C32.0085 14.0149 32.0285 11.8255 31.9044 9.62C31.7802 7.05831 31.1957 4.78481 29.3218 2.91157C27.444 1.03433 25.1738 0.453951 22.6113 0.329869C20.4011 0.205787 18.211 0.2258 16.0048 0.2258C13.7947 0.2258 11.6045 0.205787 9.39837 0.329869C6.83587 0.453951 4.56165 1.03834 2.68782 2.91157C0.809981 4.78881 0.229414 7.05831 0.105293 9.62C-0.0188287 11.8295 0.00119094 14.0189 0.00119094 16.2244C0.00119094 18.4298 -0.0188287 20.6233 0.105293 22.8287C0.229414 25.3904 0.813985 27.6639 2.68782 29.5372C4.56565 31.4144 6.83587 31.9948 9.39837 32.1189C11.6085 32.2429 13.7987 32.2229 16.0048 32.2229C18.215 32.2229 20.4051 32.2429 22.6113 32.1189C25.1738 31.9948 27.448 31.4104 29.3218 29.5372C31.1997 27.6599 31.7802 25.3904 31.9044 22.8287C32.0325 20.6233 32.0085 18.4338 32.0085 16.2244ZM16.0008 24.4338C11.4564 24.4338 7.7888 20.7674 7.7888 16.2244C7.7888 11.6814 11.4564 8.01494 16.0008 8.01494C20.5453 8.01494 24.2129 11.6814 24.2129 16.2244C24.2129 20.7674 20.5453 24.4338 16.0008 24.4338ZM24.5492 9.59599C23.4881 9.59599 22.6313 8.73942 22.6313 7.67872C22.6313 6.61802 23.4881 5.76146 24.5492 5.76146C25.6102 5.76146 26.4671 6.61802 26.4671 7.67872C26.4674 7.93059 26.418 8.18005 26.3217 8.4128C26.2254 8.64556 26.0842 8.85704 25.906 9.03514C25.7279 9.21324 25.5163 9.35445 25.2835 9.45069C25.0507 9.54693 24.8011 9.5963 24.5492 9.59599Z" fill="#F57600"/>
</svg>
