<svg width="34" height="28" viewBox="0 0 34 28" fill="none" xmlns="http://www.w3.org/2000/svg">
<path d="M33.3165 3.43872C32.0913 3.96706 30.758 4.34731 29.3847 4.4954C30.8105 3.6486 31.8783 2.31078 32.3876 0.732957C31.0496 1.52863 29.5839 2.08657 28.0554 2.38203C27.4165 1.69929 26.6439 1.15539 25.7856 0.78422C24.9273 0.413049 24.0017 0.222561 23.0665 0.224626C19.2828 0.224626 16.2399 3.29062 16.2399 7.05307C16.2399 7.58141 16.3039 8.10976 16.408 8.61809C10.7425 8.32189 5.68956 5.61613 2.33028 1.47344C1.71818 2.51858 1.39742 3.7086 1.40137 4.91968C1.40137 7.28922 2.60654 9.37858 4.44434 10.6074C3.3613 10.5647 2.30362 10.2672 1.35733 9.73882V9.82287C1.35733 13.141 3.70362 15.8908 6.83067 16.5232C6.24353 16.6757 5.63953 16.7537 5.03291 16.7554C4.58848 16.7554 4.16807 16.7114 3.74365 16.6513C4.6085 19.3571 7.12696 21.3223 10.1259 21.3864C7.7796 23.2236 4.84073 24.3043 1.64961 24.3043C1.07705 24.3043 0.548536 24.2843 0 24.2202C3.02696 26.1615 6.61846 27.2822 10.4862 27.2822C23.0425 27.2822 29.9132 16.8835 29.9132 7.85759C29.9132 7.5614 29.9132 7.26521 29.8932 6.96901C31.2225 5.99638 32.3876 4.7916 33.3165 3.43872Z" fill="#F57600"/>
</svg>
