<svg width="42" height="28" viewBox="0 0 42 28" fill="none" xmlns="http://www.w3.org/2000/svg">
<path d="M40.1469 4.51439C39.9147 3.68653 39.4625 2.93702 38.8383 2.34555C38.1964 1.7359 37.4098 1.29979 36.5525 1.07841C33.3443 0.233078 20.4908 0.233078 20.4908 0.233078C15.1323 0.172133 9.77516 0.440183 4.44955 1.03572C3.59229 1.27346 2.8071 1.7193 2.1638 2.3336C1.53172 2.94156 1.07389 3.69125 0.834721 4.51268C0.260196 7.60667 -0.0189468 10.7482 0.00105435 13.895C-0.0194456 17.039 0.259013 20.1795 0.834721 23.2773C1.06876 24.0953 1.52489 24.8416 2.15868 25.4445C2.79247 26.0473 3.58172 26.4828 4.44955 26.7133C7.70051 27.5569 20.4908 27.5569 20.4908 27.5569C25.8561 27.618 31.2201 27.3499 36.5525 26.7543C37.4098 26.5329 38.1964 26.0968 38.8383 25.4872C39.4704 24.8843 39.9197 24.1346 40.1452 23.3183C40.7347 20.2255 41.0213 17.0827 41.001 13.9343C41.0454 10.7726 40.7591 7.6149 40.1469 4.51268V4.51439ZM16.4045 19.7423V8.04941L27.0986 13.8967L16.4045 19.7423Z" fill="#F57600"/>
</svg>
